<?xml version="1.0" encoding="utf-8"?>
<!-- Generator: Adobe Illustrator 15.1.0, SVG Export Plug-In . SVG Version: 6.00 Build 0)  -->
<!DOCTYPE svg PUBLIC "-//W3C//DTD SVG 1.1//EN" "http://www.w3.org/Graphics/SVG/1.1/DTD/svg11.dtd">
<svg version="1.1" id="Capa_1" xmlns="http://www.w3.org/2000/svg" xmlns:xlink="http://www.w3.org/1999/xlink" x="0px" y="0px"
	 width="357.661px" height="69.25px" viewBox="63.035 67.25 357.661 69.25" enable-background="new 63.035 67.25 357.661 69.25"
	 xml:space="preserve">
<g id="_x23_000000ff">
	<path d="M63.035,67.25h357.661v69.25H63.035V67.25 M79.28,82.13c-0.763,0.282-1.65,0.508-2.119,1.208
		c-1.054,1.533-0.986,3.444-1.328,5.183c-0.884,0.368-1.828,0.806-2.227,1.702c-0.74,1.632-0.669,3.458-0.836,5.197
		c-0.011,7.815-4.156,15.186-3.226,23.059c-0.018,1.021,0.858,1.691,1.571,2.333c0.342,0.075,0.698,0.059,1.048,0.078
		c0.127-0.451,0.263-0.899,0.407-1.347c0.684-0.252,1.396-0.438,2.057-0.744c0.492-0.661,0.392-1.503,0.505-2.263
		c0.819-7.649,2.41-15.195,3.396-22.823c0.057-0.438,0.155-0.867,0.266-1.293c0.158,0.161,0.299,0.333,0.427,0.518
		c4.147,8.696,7.964,17.538,12.297,26.154c0.616,0.107,1.3,0.512,1.881,0.091c0.492-0.414,0.732-1.017,1.094-1.527
		c0.811,0.738,1.429,1.653,2.345,2.29c0.854,0.606,1,1.704,1.715,2.418c0.639,0.58,1.93,0.186,1.98-0.687
		c0.167-0.631-0.432-1.08-0.808-1.509c-1.861-1.785-3.729-3.685-4.724-6.053c0.35-0.338,0.921-0.646,0.794-1.205
		c-0.182-0.595-0.554-1.119-0.792-1.693c0.605-0.43,1.28-0.757,1.983-1.018c1.622-6.042,3.65-11.976,5.741-17.881
		c0.147-0.473,0.587-0.754,0.969-1.046c1.522,6.718,3.989,13.192,5.812,19.835c0.969,2.341,1.223,4.898,2.339,7.188
		c0.695,1.487,2.077,2.768,3.803,3.055c1.245,0.158,1.774-1.331,1.774-2.284c-0.076-0.902-1.271-0.747-1.941-0.985
		c-0.641-1.025-0.491-2.245-0.601-3.382c0.364-0.25,0.748-0.48,1.065-0.786c0.048-0.384-0.116-0.746-0.246-1.101
		c-2.354-5.663-4.738-11.316-7.066-16.99c-0.918-3.03-2.235-6.045-2.161-9.255c0.104-1.189-0.964-2.399-2.195-2.494
		c-0.916,0.488-1.424,1.444-1.946,2.271c-2.509,7.231-5.648,14.245-8.676,21.288c-0.125,0.298-0.326,0.564-0.542,0.808
		c-1.526-5.889-4.314-11.367-6.693-16.969c-0.407-0.942-0.709-1.936-1.32-2.786c-1.082-1.57-2.636-2.91-3.141-4.786
		c-0.404-1.049,0.124-2.134,0.02-3.199c-0.037-0.657-0.76-1.095-1.413-0.972C79.743,80.281,79.641,81.304,79.28,82.13 M141.995,83.1
		c-5.382,0.625-10.719,1.546-16.067,2.383c-1.313,0.314-2.627-0.741-3.893-0.045c-0.097,0.167-0.286,0.5-0.382,0.666
		c0.582,1.498,2.365,1.736,3.769,2.147c-0.023,0.175-0.067,0.521-0.09,0.695c-0.708-0.046-1.407-0.177-2.11-0.26
		c-0.571,0.247-0.42,0.888-0.46,1.369c0.06,3.146,1.582,6.039,1.935,9.145c0.159,0.843-0.511,1.573-0.486,2.407
		c0.153,0.658,0.692,1.195,0.689,1.893c0.184,3.041,0.316,6.085,0.528,9.123c0.322,1.549,0.729,3.283,2.071,4.343
		c1.127,0.422,1.91-0.706,2.814-1.087c6.777,0.185,13.699-0.14,20.154-2.281c0.41-0.143,0.794-0.349,1.165-0.566
		c1.878-1.224,4.268-0.956,6.398-1.442c0.633,2.547,1.074,5.135,1.724,7.68c0.113,0.649,0.661,1.119,1.209,1.474
		c0.916,0.512,2.011,1.157,3.063,0.572c0-0.277,0.002-0.55,0.005-0.824c-0.548-0.443-1.136-0.832-1.743-1.194
		c0.5-0.271,0.986-0.575,1.382-0.98c0.715-0.743,1.983-0.697,2.602-1.556c0.839-1.106,2.67-1.938,2.178-3.549
		c-0.723-0.04-1.438,0.051-2.147,0.166c0.147-5.953-1.014-11.842-1.161-17.782c3.413,3.551,6.479,7.416,8.948,11.62
		c0.443,0.83,1.07,1.597,1.322,2.504c-0.026,1.857-0.789,3.647-0.727,5.51c0.28,0.923,1.495,0.837,2.288,0.676
		c0.82-0.48,1.221-1.374,1.894-2.007c1.265,1.336,2.766,2.772,4.788,2.831c1.212-0.292,2.196-1.188,2.667-2.271
		c-0.045-0.609-0.599-1.046-0.851-1.583c0.088-0.961,0.763-1.769,0.927-2.716c0.237-0.87-0.955-0.979-1.521-1.321
		c0.015-0.681,0.074-1.366,0.229-2.032c0.896-4.915,1.783-9.837,3.04-14.682c0.727,0.666,0.992,1.627,1.45,2.459
		c2.777,5.344,5.078,10.923,8.252,16.077c1.529,1.912,1.151,4.537,2.43,6.547c0.676,1.052,2.068,0.649,3.122,0.559
		c0.644,1.28,1.003,2.697,1.833,3.886c0.933,0.942,2.672,1.173,3.735,0.288c0.022-1.015,0.155-2.042,0.025-3.052
		c-0.534-0.821-1.689-0.618-2.551-0.733c-4.1-9.258-6.58-19.143-11.535-28.055c-1.467-1.932-3.021-4.053-5.399-5.027
		c-1.379-0.314-2.026,1.216-2.834,1.979c-0.44-0.193-0.87-0.416-1.325-0.569c-0.672-0.067-1.489,0.209-1.754,0.842
		c-2.67,5.671-4.153,11.778-6.896,17.417c-4.105-4.273-7.527-9.099-11.691-13.324c-0.873-0.83-0.972-2.067-1.495-3.082
		c-0.571-0.427-1.344-0.515-1.952-0.894c-0.486-0.392-0.65-1.004-0.946-1.517c-0.633-0.113-1.277-0.104-1.91-0.005
		c-0.093,0.642-0.127,1.313,0.186,1.911c0.209,0.712,0.856,1.442,0.472,2.193c-0.978,2.199-1.565,4.539-1.822,6.909
		c-0.104,2.183-0.407,4.367-0.124,6.549c0.093,1.734,0.06,3.473,0.273,5.199c0.079,0.448-0.042,0.891-0.124,1.331
		c-2.989,0.352-5.964,0.792-8.95,1.163c-1.54,0.26-3.119,0.298-4.63,0.697c-2.639,0.618-5.243,1.804-8.029,1.425
		c-1.136-0.209-2.283,0.005-3.421-0.062c-0.78-0.279-0.808-1.149-0.93-1.809c-0.305-2.228-0.85-4.426-1.025-6.667
		c5.359-1.025,10.772-1.777,16.176-2.534c0.059-0.371,0.317-0.73,0.217-1.109c-0.262-0.507-0.926-0.55-1.438-0.665
		c-1.294,0.014-2.557,0.37-3.845,0.478c0.017-0.105,0.054-0.32,0.074-0.424c1.695-0.494,3.336-1.135,5.018-1.669
		c0.573-0.18,1.184-0.304,1.672-0.66c0.031-0.293,0.014-0.586,0.011-0.878c-0.475-0.118-0.949-0.408-1.447-0.199
		c-5.531,1.498-10.984,3.919-16.863,3.648c-0.455-1.554-0.325-3.184-0.436-4.775c-0.135-1.627-0.022-3.256,0.085-4.879
		c3.169-0.609,6.413-0.784,9.575-1.428c1.711-0.333,3.305-1.036,4.986-1.468c1.056-0.29,2.141-0.644,2.95-1.385
		c0.212-0.435-0.107-0.803-0.401-1.106c-0.915-0.22-1.966,0.147-2.774-0.421c1.39-0.918,3.351-0.4,4.602-1.562
		c0.13-0.339,0.068-0.708,0.091-1.061C146.543,82.533,144.267,82.864,141.995,83.1 M346.786,83.9
		c-3.269,0.797-6.608,1.436-9.993,1.479c-2.093,0.124-4.105,0.916-6.218,0.816c-0.669-0.013-1.305-0.236-1.963-0.303
		c-1.333,0.574-2.706,1.095-4.167,1.281c-3.13,0.351-6.283-0.006-9.418,0.134c-0.741,0.038-1.481,0.158-2.156,0.451
		c-1.653,0.698-3.52,0.569-5.21,1.149c-0.2,1.224-1.444,1.619-2.452,2.104c-0.164,1.215,1.158,1.817,2.181,2.104
		c0.579-0.005,1.142-0.164,1.717-0.236c4.854-0.784,9.795-0.476,14.696-0.55c0.401,0.054,0.901-0.091,1.235,0.196
		c0.387,1.02,0.237,2.115,0.265,3.175c-0.017,1.082,0.065,2.169-0.089,3.245c-0.251,1.752-0.048,3.541-0.357,5.291
		c-0.228,4.166-0.18,8.468,1.391,12.419c0.156,0.446,0.523,0.854,1.031,0.926c1.15,0.191,2.048-0.689,3.015-1.125
		c1.138,0.44,2.224,1.009,3.398,1.364c0.539,0.019,1.037-0.228,1.554-0.352c-0.022-0.196-0.065-0.59-0.088-0.789
		c-0.884-0.84-2.04-1.345-3-2.088c-0.649-0.679-0.607-1.629-0.316-2.445c0.119,0.029,0.361,0.088,0.48,0.121
		c0.074,0.875,0.088,1.844,0.731,2.547c0.893,0.754,2.529,0.271,2.696-0.888c0.274-2.596-0.554-5.138-0.56-7.729
		c-0.336-1.945-0.152-3.926-0.432-5.877c-0.091-2.628-0.102-5.261-0.06-7.892c2.479-0.282,4.981,0.005,7.458-0.255
		c3.085-0.054,6.182-0.395,9.134-1.267c0.386-0.121,0.776-0.261,1.104-0.502c0.506-1.122-1.045-1.536-1.738-2.104
		c0.342-0.521,1.167-0.891,0.972-1.6c-0.864-0.977-2.384-0.67-3.567-0.827c0.308-0.443,1.054-0.896,0.684-1.498
		C348.136,84.112,347.475,83.655,346.786,83.9 M380.145,84.909c-4.277,0.448-8.755,0.521-12.693,2.381
		c-1.793,0.765-3.116,2.185-4.622,3.336c-2.916,2.438-5.938,5.024-7.438,8.517c-0.623,1.339-0.802,2.802-0.989,4.238
		c-0.26,0.744-0.664,1.45-0.771,2.234c-0.14,1.277,0.032,2.555,0.215,3.819c0.002,1.567,0.729,3.12,1.983,4.147
		c2.361,2.049,5.709,2.472,8.289,4.196c1.005,0.73,2.275,0.955,3.472,1.253c7.136,1.624,14.557,0.451,21.548-1.262
		c2.364-0.625,4.793-1.068,7.111-1.833c2.723-1.653,5.664-2.947,8.405-4.577c2.112-1.258,4.107-2.861,5.201-5.038
		c1.012-1.803,0.873-3.919,0.683-5.883c-0.26-1.412-0.641-3.108-2.088-3.847c-3.305-1.895-5.271-5.22-8.418-7.309
		c-3.107-2.507-7.162-3.436-11.015-4.37c-1.687-0.115-3.361-0.319-5.048-0.389C382.676,84.453,381.424,84.836,380.145,84.909
		 M268.625,85.693c-0.073,0.155-0.223,0.464-0.296,0.62c0.223,0.698,0.655,1.372,0.573,2.129c-0.299,6.27-0.584,12.54-0.7,18.815
		c-0.209,2.678-0.22,5.365-0.293,8.046c0.055,0.733-0.167,1.641,0.474,2.199c0.489,0.413,1.169,0.308,1.774,0.354
		c0.478-0.682,0.874-1.412,1.282-2.131c0.515-0.091,1.182,0.102,1.526-0.381c0.721-1.086,0.381-2.593,1.404-3.527
		c1.356-1.278,3.306-1.667,4.883-2.627c0.451-1.109-1.233-1.012-1.938-1.176c-0.464-1.763-0.393-3.599-0.235-5.396
		c1.055,0.535,1.763,1.476,2.56,2.293c2.667,2.652,5.167,5.464,8.069,7.894c1.082,0.998,2.749,0.854,4.113,0.617
		c1.299-0.212,2.432-0.966,3.757-1.063c0.12,1.481,0.557,3.159,1.891,4.077c0.762,0.588,1.893,0.215,2.418-0.486
		c0.505-0.703,1.046-1.473,0.91-2.37c-0.656-0.12-1.413,0.057-1.995-0.26c-1.212-3.441-1.523-7.094-2.277-10.638
		c-0.087-3.94,0.291-7.873,0.246-11.813c-0.023-1.27,0.139-2.574-0.336-3.79c-0.803-0.319-1.842-0.615-2.486,0.145
		c-0.972,0.687-0.452,1.917-0.328,2.851c0.365,3.484-0.034,6.987,0.054,10.479c0.466,3.564,1.116,7.112,1.52,10.686
		c-0.966-0.095-1.946-0.231-2.905-0.03c-0.918,0.153-1.89,0.438-2.811,0.191c-0.966-0.873-1.854-1.823-2.783-2.733
		c-3.057-3.111-6.32-6.082-8.874-9.596c-0.559-1.345-0.664-2.824-1.138-4.201c-0.68-0.515-1.542-0.864-1.991-1.613
		c-0.854-1.225-0.738-2.931,0.311-4.016c-0.382-0.623-0.792-1.24-1.339-1.742c-0.305-0.312-0.791-0.628-0.571-1.119
		c0-0.368,0.286-0.972-0.198-1.162C271.501,84.512,269.968,85.239,268.625,85.693 M237.201,88.138c-3.56,0.964-7.292,1.739-11,1.178
		c-0.746-0.121-1.523-0.453-2.272-0.193c-0.624,0.43-1.11,1.047-1.859,1.302c-0.042-0.524-0.059-1.049-0.096-1.573
		c-0.576-0.048-1.152-0.081-1.729-0.085c-0.41,0.609-0.803,1.256-1.416,1.707c-0.836,0.614-1.881,0.867-2.884,1.125
		c0.002,0.352,0,0.706-0.006,1.06c1.009,0.406,2.122,0.054,3.172,0.266c0.289,0.837-0.655,1.055-1.084,1.589
		c-0.791,1.404,0.497,2.928,0.113,4.386c-0.212,0.418-0.554,0.757-0.81,1.146c0.158,0.695,1.305,0.689,1.435,1.422
		c0.169,1.479,0.383,2.953,0.449,4.44c0.339,2.22,0.156,4.474,0.398,6.702c0.057,1.098-0.141,2.394,0.788,3.234
		c1.167,0.728,2.506-0.088,3.724-0.262c1.217-0.441,2.373,0.437,3.611,0.171c8.707-0.685,17.287-2.338,25.827-4.042
		c1.542-0.319,3.127-0.231,4.693-0.104c2.342,0.016,4.729,0.249,7.034-0.261c1.286-0.59,1.771-2.101,1.528-3.365
		c-0.548-0.065-1.108-0.204-1.656-0.094c-0.827,0.421-0.867,1.774-1.955,1.82c-2.494,0.23-5.003,0.1-7.504,0.032
		c-1.811-0.088-3.548,0.486-5.322,0.727c-6.283,1.173-12.566,2.375-18.906,3.253c-1.285,0.162-2.588,0.081-3.879,0.097
		c-0.089-3.175-0.316-6.345-0.269-9.523c0.043-1.452-0.135-2.929,0.201-4.362c8.1-1.32,16.07-3.277,24.189-4.501
		c0.72-0.121,1.46-0.164,2.161-0.394c0.441-0.379,0.023-0.865-0.078-1.294c-1.144,0.162-2.297,0.18-3.447,0.247
		c-6.693,0.623-13.194,2.333-19.796,3.457c-1.048,0.215-2.113,0.371-3.181,0.212c0.011-1.895-0.045-3.803,0.266-5.682
		c0.209-0.204,0.457-0.327,0.749-0.375c4.938-0.689,9.871-1.57,14.623-3.049c0.495-0.123,0.757-0.571,1.079-0.907
		c-0.333-0.292-0.582-0.835-1.127-0.698C241.004,87.137,239.105,87.678,237.201,88.138z"/>
	<path d="M189.101,88.61c0.463,0,0.944-0.092,1.401,0.029c2.062,2.252,3.381,5.003,4.565,7.738
		c1.646,4.054,3.328,8.101,4.655,12.256c-3.536-5.704-5.949-11.958-9.274-17.769C190.022,90.097,189.2,89.518,189.101,88.61z"/>
	<path d="M374.333,89.922c1.672-0.55,3.441-1.009,5.232-0.794C377.907,89.74,376.108,90.022,374.333,89.922z"/>
	<path d="M179.227,105.976c2.119-5.282,4.006-10.647,6.168-15.911c-0.893,6.101-1.941,12.183-3.116,18.241
		c-0.317,1.248-0.108,2.539-0.227,3.806c-0.712-0.577-1.068-1.417-1.521-2.168c-0.479-0.875-1.047-1.704-1.489-2.598
		C178.804,106.894,179.08,106.408,179.227,105.976z"/>
	<path d="M385.755,90.588c2.639-0.083,5.309,0.427,7.676,1.557c2.158,0.819,4.398,2.252,4.969,4.528
		c0.207,1.17,0.593,2.391,0.207,3.567c-0.679,2.507-2.709,4.358-4.306,6.361c-2.416,3.009-6.32,4.526-10.14,5.165
		c-2.124,0.357-4.277,0.512-6.421,0.692c-1.921,0.167-3.846-0.362-5.487-1.296c-2.26-1.277-4.094-3.114-5.789-5
		c-0.7-0.797-0.455-1.921-0.426-2.875c0.505-2.057,1.884-3.847,2.136-5.978c0.271-2.55,2.856-4.23,5.285-4.805
		C377.577,91.968,381.588,90.784,385.755,90.588z"/>
	<path d="M221.669,92.652c0.285-0.064,0.574-0.128,0.865-0.193c0.04,0.623,0.056,1.248,0.053,1.871
		c-0.149-0.04-0.449-0.118-0.599-0.159C221.864,93.667,221.746,93.165,221.669,92.652z"/>
	<path d="M362.372,98.813c0.69-0.607,1.367-1.334,2.317-1.554c-0.492,2.657-2.172,5.082-2.017,7.843
		c0.087,1.688,1.446,2.926,2.613,4.056c1.76,1.744,3.913,3.049,5.927,4.501c-3.243-0.72-6.449-2.164-8.534-4.708
		c-1.379-1.562-1.918-3.573-2.518-5.483C359.9,101.655,361.168,100.079,362.372,98.813z"/>
	<path d="M403.305,100.361c0.856-0.167,0.679,0.951,0.605,1.447c-1.077,3.621-4.035,6.278-6.541,9.045
		c-0.636,0.631-1.169,1.41-2.042,1.767c-2.063,0.991-4.254,1.868-6.569,2.104C394.305,110.692,400.342,106.594,403.305,100.361z"/>
	<path d="M89.653,108.837c1.104,0.631,1.251,1.951,1.297,3.057C90.166,111.055,89.62,109.984,89.653,108.837z"/>
</g>
</svg>
